<?xml version="1.0" encoding="utf-8"?>
<!-- Generator: Adobe Illustrator 27.3.1, SVG Export Plug-In . SVG Version: 6.00 Build 0)  -->
<svg version="1.1" id="Logo_Artwork" xmlns="http://www.w3.org/2000/svg" xmlns:xlink="http://www.w3.org/1999/xlink" x="0px"
	 y="0px" viewBox="0 0 600 87" style="enable-background:new 0 0 600 87;" xml:space="preserve">
<style type="text/css">
	.st0{fill:#FC4C02;}
	.st1{fill:#0E254F;}
</style>
<path class="st0" d="M19.6,79.3l-6.6,7h50c10.7,0,21-4.4,28.2-12.3l8.1-8.7H51.7C39.5,65.3,27.9,70.4,19.6,79.3z M116.6,0.4
	c-12.2,0-23.8,5.1-32.1,14l-6.6,7h50c10.7,0,20.9-4.5,28.2-12.3l8.1-8.7C164.3,0.4,116.6,0.4,116.6,0.4z M10.7,46.8l-6.6,7h91.4
	c10.7,0,20.9-4.5,28.2-12.3l8.1-8.7H42.8C30.6,32.9,19,37.9,10.7,46.8L10.7,46.8z"/>
<path class="st1" d="M201.7,56.2h-37.7c0.9,11.2,5.9,14.7,12.3,14.7c5.9,0,10.2-3.3,11.1-9h13.8c-2.7,12.4-12.7,18.7-25.2,18.7
	c-14.6,0-25.9-9.1-25.9-27.8c0-16.3,10.7-28.1,26.9-28.1s24.9,12.4,24.9,26.9C201.9,52.9,201.9,54.5,201.7,56.2L201.7,56.2z
	 M164.3,47.3h23.4c-0.9-8.4-4.7-12.9-11.3-12.9S165.5,38.5,164.3,47.3z"/>
<path class="st1" d="M234.1,79.2h-15.4l-20.7-53.1h15.3l13.4,42.7l13.1-42.7h14.9L234.1,79.2L234.1,79.2z"/>
<path class="st1" d="M302,56.2h-37.7c0.9,11.2,5.9,14.7,12.3,14.7c5.9,0,10.2-3.3,11.1-9h13.8c-2.7,12.4-12.7,18.7-25.2,18.7
	c-14.6,0-25.9-9.1-25.9-27.8c0-16.3,10.7-28.1,27-28.1s24.9,12.4,24.9,26.9C302.2,52.9,302.2,54.5,302,56.2L302,56.2z M264.7,47.3
	H288c-0.9-8.4-4.7-12.9-11.3-12.9S265.9,38.5,264.7,47.3L264.7,47.3z"/>
<path class="st1" d="M356.4,49.2v29.9h-13.8v-28c0-2.2,0-4.7-0.2-7.4c-0.4-5.6-3.5-9.4-10.2-9.4s-12,5.8-12,20.6v24.3h-13.8V26.1
	h13.8v8.6l4.1-6.3c3.8-2.7,7.7-3.7,12.8-3.7c11.3,0,17.8,5.6,18.9,14.9C356.3,42.3,356.4,45,356.4,49.2L356.4,49.2z"/>
<path class="st1" d="M379,60.1c0,1.8,0,3.3,0.1,4.7c0.4,5.2,2.3,6.4,10,5.8v9c-3.1,0.5-6,0.7-9.1,0.7c-10.3,0-14-3.4-14.6-10.9
	c-0.2-2.4-0.2-4.7-0.2-7.7V35.6h-7.8v-9.1h7.8V13.4H379v13.1h11v9.1h-11L379,60.1L379,60.1z"/>
<path class="st1" d="M408.4,21.5v5.2h10.9v6.6h-10.9v45.9h-8.6V33.3h-5.7v-6.6h5.7v-4.4c0-2,0.1-4.6,0.3-6.4c0.9-7.7,6.1-12,14-12
	c2.2,0,4.3,0.2,6.1,0.5v7.1c-6.5-1.2-10.8,0.3-11.5,4.6C408.5,17.5,408.4,20,408.4,21.5z"/>
<path class="st1" d="M469.7,52.8c0,14.9-8.3,27.8-26.2,27.8s-26.2-13-26.2-27.8s8.3-27.9,26.2-27.9S469.7,37.8,469.7,52.8z
	 M460.3,52.8c0-12.5-6.2-21.3-16.9-21.3s-16.9,8.8-16.9,21.3S432.8,74,443.5,74S460.3,65.1,460.3,52.8z"/>
<path class="st1" d="M499,25.8v6.5c-9-0.6-15.8,4.7-15.8,16.8v30.1h-8.6V26.3h8.6v8.3l4.8-7.1c2.2-1.5,4.9-2.4,7.4-2.4
	C496.8,25.1,498,25.3,499,25.8L499,25.8z"/>
<path class="st1" d="M545.4,44.1h-9c-1.9-8.5-6.5-12.6-13.6-12.6c-8.3,0-15.3,6.5-15.3,20.8c0,15.4,6.8,21.8,14.7,21.8
	c7,0,11.9-4,13.7-11.7h9c-2.6,12.3-11.4,18.3-23.2,18.3c-13.4,0-23.6-8.4-23.6-27.8c0-17.9,11.6-28,24.9-28
	C536.3,24.9,543.8,32.5,545.4,44.1z"/>
<path class="st1" d="M595.8,55.3h-38.3c0.8,14,7.4,18.7,15.2,18.7c6.9,0,12.5-4.3,13.7-11.9h9c-2.1,12.8-12.2,18.5-23.1,18.5
	c-13.8,0-24.1-9-24.1-27.7c0-17.2,10.7-28,25.2-28S596,35.8,596,51.2C596,52,596,53.5,595.8,55.3L595.8,55.3z M557.6,48.8h29.8
	c-0.8-11-5.5-17.3-14.2-17.3S558.6,37.5,557.6,48.8L557.6,48.8z"/>
</svg>
